<?xml version="1.0"?>
<svg xmlns="http://www.w3.org/2000/svg" xmlns:xlink="http://www.w3.org/1999/xlink" xmlns:svgjs="http://svgjs.com/svgjs" version="1.1" width="512" height="512" x="0" y="0" viewBox="0 0 511.999 511.999" style="enable-background:new 0 0 512 512" xml:space="preserve" class=""><g>
<g xmlns="http://www.w3.org/2000/svg">
	<g>
		<path d="M405.986,90h-10.681l1.349-13.506c0.425-4.219-0.967-8.423-3.809-11.558c-2.84-3.149-6.883-4.936-11.117-4.936    L76.015,60.059c-6.064,0-11.543,3.662-13.857,9.258c-2.329,5.61-1.04,12.07,3.252,16.348l30.439,30.41l28.271,233.54    c0.593,5.92,5.543,10.386,11.468,10.386h222.151c6,0,11.027-4.547,11.625-10.518L374.312,300h31.674c24.814,0,45-20.186,45-45V135    C450.986,110.186,430.8,90,405.986,90z M252.719,330.103h-20.991c-8.291,0-15-6.709-15-15c0-8.291,6.709-15.2,15-15.2h20.991    c8.291,0,15,6.909,15,15.2S261.01,330.103,252.719,330.103z M252.719,270.103h-20.991c-8.291,0-15-6.709-15-15    c0-8.291,6.709-15.2,15-15.2h20.991c8.291,0,15,6.909,15,15.2C267.719,263.394,261.01,270.103,252.719,270.103z M252.719,210.103    h-20.991c-8.291,0-15-6.709-15-15c0-8.291,6.709-15.2,15-15.2h20.991c8.291,0,15,6.909,15,15.2    C267.719,203.394,261.01,210.103,252.719,210.103z M252.719,150.103h-20.991c-8.291,0-15-6.709-15-15c0-8.291,6.709-15.2,15-15.2    h20.991c8.291,0,15,6.909,15,15.2C267.719,143.394,261.01,150.103,252.719,150.103z M420.986,255c0,8.276-6.724,15-15,15H377.31    l14.996-150h13.68c8.276,0,15,6.724,15,15V255z" fill="#ffffff" data-original="#000000" style="" class=""/>
	</g>
</g>
<g xmlns="http://www.w3.org/2000/svg">
	<g>
		<path d="M315.986,0h-150c-19.548,0-36.055,12.401-42.252,29.851l234.49-0.04C352.016,12.383,335.52,0,315.986,0z" fill="#ffffff" data-original="#000000" style="" class=""/>
	</g>
</g>
<g xmlns="http://www.w3.org/2000/svg">
	<g>
		<path d="M396.275,493.367l-24.317-99.295c-0.597-2.393-2.747-4.072-5.215-4.072H126.734c-2.476,0-4.634,1.685-5.235,4.087    l-24.316,99.28c-1.128,4.482-0.117,9.229,2.725,12.861c2.842,3.647,7.207,5.771,11.821,5.771h270    c4.614,0,8.979-2.124,11.821-5.771C396.392,502.595,397.403,497.849,396.275,493.367z M261.728,452h-30c-8.291,0-15-6.709-15-15    c0-8.291,6.709-15,15-15h30c8.291,0,15,6.709,15,15C276.728,445.291,270.019,452,261.728,452z" fill="#ffffff" data-original="#000000" style="" class=""/>
	</g>
</g>
<g xmlns="http://www.w3.org/2000/svg">
</g>
<g xmlns="http://www.w3.org/2000/svg">
</g>
<g xmlns="http://www.w3.org/2000/svg">
</g>
<g xmlns="http://www.w3.org/2000/svg">
</g>
<g xmlns="http://www.w3.org/2000/svg">
</g>
<g xmlns="http://www.w3.org/2000/svg">
</g>
<g xmlns="http://www.w3.org/2000/svg">
</g>
<g xmlns="http://www.w3.org/2000/svg">
</g>
<g xmlns="http://www.w3.org/2000/svg">
</g>
<g xmlns="http://www.w3.org/2000/svg">
</g>
<g xmlns="http://www.w3.org/2000/svg">
</g>
<g xmlns="http://www.w3.org/2000/svg">
</g>
<g xmlns="http://www.w3.org/2000/svg">
</g>
<g xmlns="http://www.w3.org/2000/svg">
</g>
<g xmlns="http://www.w3.org/2000/svg">
</g>
</g></svg>
